HIERARCHY
ROOT Hips
{
  OFFSET 42.6663 90.8784 123.777
  CHANNELS 6 Xposition Yposition Zposition Zrotation Xrotation Yrotation
  JOINT RightUpLeg
  {
    OFFSET -8.9458 -8.66707 0.101652
    CHANNELS 3 Zrotation Xrotation Yrotation
    JOINT RightLeg
    {
      OFFSET 0 -44.4227 1.3727
      CHANNELS 3 Zrotation Xrotation Yrotation
      JOINT RightFoot
      {
        OFFSET 0.253549 -42.0924 -1.46059
        CHANNELS 3 Zrotation Xrotation Yrotation
        JOINT RightToes
        {
          OFFSET 0.04 -4.41509 8.4991
          CHANNELS 3 Zrotation Xrotation Yrotation
          End Site
          {
            OFFSET -0.08 -0.137448 9.77979
          }
        }
      }
    }
  }
  JOINT Spine
  {
    OFFSET 0 11.8905 0
    CHANNELS 3 Zrotation Xrotation Yrotation
    JOINT Spine1
    {
      OFFSET 0 25.6574 0.127663
      CHANNELS 3 Zrotation Xrotation Yrotation
      JOINT HEad
      {
        OFFSET 0 8.73416 0.011341
        CHANNELS 3 Zrotation Xrotation Yrotation
        End Site
        {
          OFFSET -0.29 12.7742 2.51395
        }
      }
      JOINT LeftShoulder1
      {
        OFFSET 8.99 -0.362252 -0.22
        CHANNELS 3 Zrotation Xrotation Yrotation
        JOINT LeftArm
        {
          OFFSET 10.2827 -0.00338 0.322123
          CHANNELS 3 Zrotation Xrotation Yrotation
          JOINT LeftForeArm
          {
            OFFSET 32.7669 0.099144 -1.42434
            CHANNELS 3 Zrotation Xrotation Yrotation
            JOINT LeftHand
            {
              OFFSET 27.5643 0.085362 1.02216
              CHANNELS 3 Zrotation Xrotation Yrotation
              End Site
              {
                OFFSET 16.7443 -0.6 1.50291
              }
            }
          }
        }
      }
      JOINT RightShoulder
      {
        OFFSET -8.99 -0.362252 -0.22
        CHANNELS 3 Zrotation Xrotation Yrotation
        JOINT RightArm
        {
          OFFSET -10.2827 -0.00338 0.322123
          CHANNELS 3 Zrotation Xrotation Yrotation
          JOINT RightForeArm
          {
            OFFSET -32.8971 0.099144 -1.42434
            CHANNELS 3 Zrotation Xrotation Yrotation
            JOINT RightHand
            {
              OFFSET -27.4921 0.085362 1.02216
              CHANNELS 3 Zrotation Xrotation Yrotation
              End Site
              {
                OFFSET -16.6312 -0.6 1.50291
              }
            }
          }
        }
      }
    }
  }
  JOINT LeftUpLeg
  {
    OFFSET 8.9458 -8.66707 0.101652
    CHANNELS 3 Zrotation Xrotation Yrotation
    JOINT LeftLeg
    {
      OFFSET 0 -44.4227 1.3727
      CHANNELS 3 Zrotation Xrotation Yrotation
      JOINT LeftFoot
      {
        OFFSET -0.253549 -42.0924 -1.46059
        CHANNELS 3 Zrotation Xrotation Yrotation
        JOINT LeftToes
        {
          OFFSET -0.04 -4.41509 8.4991
          CHANNELS 3 Zrotation Xrotation Yrotation
          End Site
          {
            OFFSET 0.08 -0.047448 9.77979
          }
        }
      }
    }
  }
}
MOTION
Frames:	21
Frame Time:	0.0166667
95.4167 83.5943 105.414 -11.3228 0.946981 -143.684 -10.4018 -44.1213 -27.8676 -3.84235 70.2854 -2.62201 -33.7677 -1.6904 -3.36002 0.0462048 0.000533403 0.662642 -11.0629 13.0148 1.90693 0.0240178 0.0378399 -0.0492012 0.483338 15.6238 -5.21421 -4.41391e-032 -3.97569e-016 -6.36111e-015 -117.466 -18.889 -69.3659 -123.809 49.4158 -8.76264 10.0766 35.0262 -2.64516 1.25218 21.2826 24.3366 -153.915 -22.529 178.86 133.142 39.7805 3.81602 -8.26415 28.04 -0.460355 33.4585 -28.747 -12.7483 -72.8698 56.051 47.0935 -38.616 2.62425 1.00261 -1.30675e-009 1.55947e-007 -4.87346e-009 
98.5011 88.6426 103.884 -10.9862 0.675856 -141.023 -6.23163 -40.5682 -22.9434 -12.0438 64.1099 7.4754 -23.2842 -3.81027 -3.06233 0.0462048 0.000533403 0.662642 -11.1041 13.0776 1.99679 0.0878466 0.10885 -0.0764044 2.68537 19.0301 -5.8132 3.97569e-016 3.97569e-016 3.18055e-015 -115.653 -18.6485 -68.4222 -123.55 49.2965 -9.96498 9.61366 32.683 -1.70219 0.384559 20.6537 25.7172 -150.72 -21.547 -179.328 134.403 40.45 3.0758 -7.9663 28.3764 0.601929 28.8207 -26.6371 -8.07051 -79.273 58.8312 50.1725 -24.1208 3.45864 2.71197 -1.30675e-009 1.55947e-007 -4.87346e-009 
101.139 92.7817 102.879 -8.52635 0.807212 -137.679 -1.57397 -38.8209 -18.7546 -17.4239 58.2148 13.6594 -12.3925 -6.01081 -2.34523 0.0462048 0.000533403 0.662642 -7.98167 13.2754 0.103244 0.0819172 0.0996098 -0.061814 3.7539 20.8067 -6.03148 -3.97569e-016 3.97569e-016 -0 -115.248 -18.8298 -68.7968 -123.675 49.2625 -10.9948 8.96926 33.7184 -2.55999 1.1103 18.9945 25.8729 -150.284 -22.0483 -178.101 135.57 41.1499 2.23546 -8.8823 28.1357 0.646484 25.7944 -23.6439 -4.25556 -76.6704 61.3502 46.9628 -19.933 4.58603 2.65622 -1.30675e-009 1.55947e-007 -4.87347e-009 
103.272 96.5795 102.221 -4.43715 1.27421 -133.738 3.68322 -37.8171 -14.6883 -20.8014 51.4403 16.8084 -1.07481 -7.49182 -1.04296 0.0462048 0.000533403 0.662642 -3.32958 12.1923 -2.8138 -5.11957e-005 0.01128 -0.02526 4.80285 22.2007 -6.36043 -7.95139e-016 -1.19271e-015 3.18055e-015 -114.929 -19.3042 -69.1217 -123.953 49.3704 -11.8229 8.76336 32.3977 -2.34568 2.07821 17.5077 25.6758 -150.484 -22.951 -177.399 136.58 41.7989 1.4331 -8.81903 28.443 1.5336 23.2223 -20.9227 -0.700968 -66.2223 62.6376 39.1156 -11.9125 4.55389 2.30684 -1.30675e-009 1.55947e-007 -4.87347e-009 
105.091 99.698 101.938 -0.988887 1.80832 -130.249 8.15736 -36.3019 -9.63518 -22.9137 44.4752 18.0159 10.2618 -8.06704 0.627531 0.0462048 0.000533403 0.662642 0.668028 11.0029 -5.3352 -0.00139096 0.00819999 -0.02041 5.62761 23.0629 -6.76759 7.95139e-016 0 -1.27222e-014 -115.224 -19.6295 -69.7095 -123.912 49.5159 -12.3854 8.48906 33.0761 -3.22921 8.70289 11.7114 14.2006 -158.517 -33.6442 175.766 137.295 42.2774 0.809228 -9.19573 28.1744 1.76807 19.6458 -16.8679 3.06109 -46.8226 61.2688 25.2084 -1.48507 3.61461 1.51032 -1.30676e-009 1.55947e-007 -4.87346e-009 
106.576 101.921 102.037 2.13916 2.41245 -126.872 12.0688 -34.8369 -4.49558 -24.3313 37.6351 18.1439 20.8627 -8.0897 2.24216 0.0462048 0.000533403 0.662642 4.35843 9.62612 -7.67943 -0.00139483 0.0052775 -0.00727979 6.48504 23.4334 -7.54132 -7.95139e-016 -7.95139e-016 3.18055e-015 -115.709 -19.938 -70.3646 -123.624 49.589 -12.9943 8.31875 33.2827 -3.94917 12.9832 6.86794 7.18229 -165.918 -40.464 169.893 138.135 42.6604 0.351787 -9.4605 28.09 2.07869 15.9629 -12.6772 6.94589 -29.0827 56.8764 11.7284 7.65583 2.64338 1.19819 -1.30675e-009 1.55947e-007 -4.87346e-009 
108.184 103.24 102.375 4.90406 3.03429 -123.592 15.1712 -33.5137 0.596623 -25.5438 31.0484 17.7324 30.7218 -7.62139 3.70326 0.0462048 0.000533403 0.662642 7.70072 8.1301 -9.83722 -0.00072008 0.00229001 -0.00178996 7.26345 23.7002 -8.3448 1.59028e-015 0 -6.36111e-015 -116.402 -20.2948 -71.05 -123.313 49.6169 -13.5418 8.30177 33.277 -4.46954 15.8835 3.31936 2.71914 -173.95 -45.1529 163.602 137.836 43.6637 0.618537 -9.59413 27.9217 2.31713 12.6169 -8.69822 10.6639 -15.1767 49.848 1.51985 13.9797 1.46669 1.07148 -1.30675e-009 1.55947e-007 -4.87346e-009 
109.707 104.03 102.794 7.32842 3.64023 -120.409 17.0894 -32.4177 5.3967 -26.3971 24.9315 16.8979 39.7083 -6.62606 4.91697 0.0462048 0.000533403 0.662642 10.7084 6.5422 -11.8067 0.000650032 -0.00105 0.00071997 7.90878 23.4781 -9.42537 -1.59028e-015 7.95139e-016 -6.36111e-015 -118.09 -21.7663 -72.1135 -122.802 49.7334 -13.8576 7.4571 32.0559 -5.08747 17.9664 1.02226 -0.167161 177.257 -48.1246 156.693 136.938 43.767 1.68007 -7.88067 23.9482 3.84713 9.64482 -5.07413 14.2274 -4.97563 41.2309 -5.51804 17.6354 0.0149703 1.07471 -1.30675e-009 1.55947e-007 -4.87347e-009 
111.256 104.607 103.231 8.82467 4.39295 -117.162 21.1064 -31.38 11.1358 -27.4304 21.8974 15.5205 32.1057 -7.0388 4.07616 0.0462048 0.000533403 0.662642 13.4959 5.51912 -13.4045 0.0124914 0.01648 0.0274394 8.59418 23.3232 -10.576 -0 0 6.36111e-015 -121.256 -23.2073 -72.8055 -122.066 49.8826 -12.7045 5.91332 32.9273 -0.567921 18.4106 1.30904 -4.84969 167.132 -47.439 146.369 135.147 43.6574 1.62105 -7.80759 23.6243 5.11084 7.25913 -0.894159 17.079 0.763451 30.2765 -8.75915 17.6956 -0.865057 1.04527 -1.30675e-009 1.55947e-007 -4.87346e-009 
112.715 105.019 103.593 9.42812 5.20576 -113.969 23.3237 -29.0832 16.0714 -27.9805 19.0523 12.8688 24.0992 -8.21819 3.24649 0.0462048 0.000533403 0.662642 16.0417 5.04904 -14.5693 0.0103614 0.01765 0.0288194 9.36246 23.2638 -11.7353 0 7.95139e-016 -0 -124.406 -23.9954 -73.0005 -119.435 50.5616 -12.2025 2.96862 35.1037 6.34867 19.0395 1.84595 -7.5896 159.296 -45.8325 139.343 132.467 43.3997 0.523004 -8.86039 25.3477 7.14798 5.46701 3.1653 19.5502 3.65406 19.9674 -9.6469 15.5878 -2.59311 1.13218 -1.30676e-009 1.55947e-007 -4.87346e-009 
114.203 104.872 103.908 9.18383 5.99361 -110.921 24.4006 -26.1211 20.5268 -28.6325 16.7363 9.40289 15.8607 -9.25462 2.13637 0.0462048 0.000533403 0.662642 18.3184 5.15388 -15.2723 0.00737142 0.01736 0.0285496 10.1827 23.0491 -13.3041 -1.59028e-015 1.59028e-015 -0 -127.375 -24.2178 -72.6439 -115.133 51.8136 -12.4688 -1.82687 38.3266 14.276 19.7272 2.5663 -8.76069 154.567 -44.2581 136.608 129.67 43.0114 0.0121948 -10.3659 27.6345 8.84826 4.72371 6.11252 21.6793 4.46778 13.2345 -9.20135 12.5433 -6.31538 1.48541 -1.30676e-009 1.55947e-007 -4.87346e-009 
115.687 104.245 104.223 6.52917 6.47717 -108.705 22.5367 -21.55 24.0363 -26.8738 15.7254 2.8962 6.76717 -9.98516 0.780391 0.0462048 0.000533403 0.662642 19.2835 7.0725 -15.4158 -0.0040102 0.00146 -0.0042198 11.1288 23.2007 -15.0568 -1.59028e-015 3.18055e-015 -0 -129.509 -23.7785 -71.2604 -104.88 54.272 -16.0301 -5.90413 30.9827 2.4114 20.118 3.72393 -6.55803 155.809 -44.0686 140.75 127.707 42.9002 -0.560385 -12.5863 30.4534 10.1407 5.7945 8.27561 22.8706 1.36713 12.6864 -5.4974 9.28281 -12.5017 1.76761 -1.30675e-009 1.55947e-007 -4.87346e-009 
116.981 103.34 104.512 2.02425 6.49617 -107.465 18.6812 -15.9692 27.2358 -22.5896 15.0629 -5.64324 -3.1636 -10.4656 -0.792004 0.0462048 0.000533403 0.662642 19.063 10.5409 -14.8837 -0.00400978 0.00470001 -0.0093998 12.246 23.6038 -16.9839 8.82781e-032 -1.59028e-015 3.18055e-015 -130.938 -22.9476 -69.0946 -90.0946 57.1546 -23.2214 -12.5766 44.9234 16.4474 20.2742 5.16633 -4.53896 158.946 -43.5954 146.308 126.526 42.9383 -1.50649 -13.2612 30.8342 11.1516 6.21383 11.4946 23.8738 -3.21855 15.1142 -1.07184 14.0863 -18.0157 2.63326 -1.30675e-009 1.55947e-007 -4.87346e-009 
118.071 102.483 104.777 -1.98112 6.37942 -106.548 13.9943 -11.1591 29.9992 -16.224 12.5016 -15.4721 -13.9451 -10.0041 -2.28547 0.0462048 0.000533403 0.662642 18.8636 13.7022 -14.2056 -0.00400978 0.00470001 -0.0093998 13.2974 23.9246 -18.63 -3.18055e-015 0 -3.18055e-015 -132.083 -21.9231 -66.8567 -71.2863 59.5183 -34.67 -10.4388 35.3201 -2.88508 20.2864 6.42523 -2.91856 162.429 -42.5566 151.665 125.977 43.0637 -2.86316 -14.4912 31.7004 12.0928 7.87 14.8897 23.5199 -9.18 17.2866 3.73814 15.0768 -20.8692 2.79809 -1.30675e-009 1.55947e-007 -4.87346e-009 
119.022 101.582 104.916 -5.50929 6.1669 -105.933 9.14017 -6.85946 32.3076 -9.58416 7.46572 -25.1192 -25.3127 -8.35492 -3.47178 0.0462048 0.000533403 0.662642 18.6581 16.5799 -13.4057 -0.00400978 0.00470001 -0.0093998 14.2433 24.1509 -19.9875 0 0 -0 -133.189 -20.6091 -64.8393 -59.5578 60.6823 -42.0858 -17.8477 35.3434 0.564479 20.2534 7.4821 -1.30311 165.938 -41.1241 156.832 125.904 43.2636 -4.57143 -14.8653 31.3393 12.7799 9.67813 17.9108 21.9403 -14.4441 18.5836 8.19459 17.2186 -22.2116 2.99871 -1.30676e-009 1.55947e-007 -4.87346e-009 
119.884 100.763 104.92 -8.57834 5.92453 -105.588 4.78744 -4.72775 34.1341 -2.4598 3.52986 -33.8858 -36.6092 -7.18596 -4.79047 0.0462048 0.000533403 0.662642 18.4551 19.1899 -12.5086 -0.00400978 0.00470001 -0.0093998 15.0633 24.2889 -21.0657 4.77083e-015 7.95139e-016 -6.36111e-015 -134.271 -19.2245 -63.2672 -52.703 61.4127 -46.5651 -16.2231 30.6013 -7.80553 20.2113 8.34998 0.26641 169.118 -39.4087 161.53 126.181 43.5156 -6.50599 -15.62 31.3838 13.3701 13.2633 21.4881 18.4966 -22.9986 17.8335 12.7789 20.203 -21.9413 2.81703 -1.30676e-009 1.55947e-007 -4.87346e-009 
120.668 100.152 104.747 -11.2065 5.69795 -105.466 1.49561 -5.00998 34.9616 4.98462 2.59047 -42.1072 -46.7635 -6.76338 -6.50066 0.0462048 0.000533403 0.662642 18.2599 21.5382 -11.551 -0.00400978 0.00470001 -0.0093998 15.7423 24.3441 -21.8716 -3.18055e-015 2.38542e-015 -3.18055e-015 -135.312 -17.9298 -62.1436 -49.0416 61.9815 -48.8163 -19.4182 31.7899 -4.58439 20.26 9.05202 1.73749 171.745 -37.5482 165.634 126.72 43.8047 -8.55572 -15.9054 30.8214 13.7544 17.8311 27.3938 12.8374 -34.0094 10.0599 14.9916 26.3011 -17.7222 3.01962 -1.30675e-009 1.55947e-007 -4.87346e-009 
121.409 99.5249 104.369 -13.4123 5.50193 -105.511 -1.70785 -6.15564 34.513 12.6529 1.80713 -49.8169 -56.251 -5.80997 -7.7496 0.0462048 0.000533403 0.662642 18.0585 23.6237 -10.5636 -0.00400978 0.00470001 -0.0093998 16.2786 24.3269 -22.4197 6.36111e-015 0 3.18055e-015 -136.254 -16.8623 -61.4323 -47.4554 62.4202 -49.7236 -18.0649 29.5858 -8.57772 20.364 9.61327 2.99666 173.787 -35.6596 169.005 127.442 44.1288 -10.6278 -16.4198 30.5617 14.0415 20.5754 30.5874 7.28494 -39.5145 4.30762 16.179 29.5803 -13.4831 3.30821 -1.30675e-009 1.55947e-007 -4.87346e-009 
122.106 98.7698 103.792 -15.2152 5.32953 -105.668 -3.89855 -5.02428 33.2856 15.368 -2.25651 -55.2333 -65.012 -1.72204 -6.18357 0.0462048 0.000533403 0.662642 17.8276 25.4446 -9.57368 -0.00400978 0.00470001 -0.0093998 16.6765 24.2452 -22.7262 -0 -7.95139e-016 -0 -137.077 -16.0568 -61.0428 -47.1533 62.7904 -49.7273 -19.5027 30.7358 -6.09603 20.5038 10.0504 4.04748 175.326 -33.8621 171.671 128.271 44.5018 -12.6521 -16.6639 30.0016 14.2101 23.133 30.1777 2.00415 -43.6075 3.5728 19.7637 31.5351 -11.7153 3.50436 -1.30676e-009 1.55947e-007 -4.87346e-009 
122.787 97.9876 103.049 -16.6386 5.16248 -105.887 -3.60239 -5.69569 30.7026 15.2223 -0.316312 -60.5196 -70.6776 1.52401 -3.44216 0.0462048 0.000533403 0.662642 17.5407 26.9982 -8.60606 -0.00400978 0.00470001 -0.0093998 16.9491 24.1102 -22.814 -0 -2.38542e-015 -0 -137.759 -15.526 -60.9217 -47.6335 63.0901 -49.297 -18.4831 29.767 -8.18717 20.6241 10.3753 4.88868 176.465 -32.2636 173.666 129.093 44.9418 -14.5209 -17.0217 29.6574 14.3087 25.5783 28.449 -3.40287 -47.5753 3.44298 23.968 33.0087 -10.1042 3.64277 -1.30675e-009 1.55947e-007 -4.87346e-009 
123.318 96.9056 102.158 -17.7112 4.98082 -106.119 -3.65 -4.63089 27.4931 13.5942 -1.70947 -63.0791 -78.0593 6.0903 1.41694 0.0462048 0.000533403 0.662642 17.1799 28.2847 -7.68698 -0.00400978 0.00470001 -0.0093998 17.1108 23.9289 -22.7091 0 0 -1.59028e-015 -138.315 -15.2301 -61.0098 -48.5573 63.3494 -48.6021 -19.1263 30.5757 -6.47509 20.7039 10.599 5.55096 177.299 -30.9242 175.077 129.83 45.4509 -16.1673 -17.1989 29.1743 14.3253 28.1357 25.8439 -9.02986 -52.1309 3.33143 28.4986 34.3489 -8.64323 3.82719 -1.30676e-009 1.55947e-007 -4.87346e-009 
